<?xml version="1.0" encoding="UTF-8"?>
<svg width="8px" height="15px" viewBox="0 0 8 15" version="1.1" xmlns="http://www.w3.org/2000/svg" xmlns:xlink="http://www.w3.org/1999/xlink">
    <!-- Generator: Sketch 50.2 (55047) - http://www.bohemiancoding.com/sketch -->
    <title>walking-person</title>
    <desc>Created with Sketch.</desc>
    <defs></defs>
    <g id="Visual-Design---Main" stroke="none" stroke-width="1" fill="none" fill-rule="evenodd">
        <g id="v2-Landing-page-UI" transform="translate(-148.000000, -1009.000000)" fill="#181818">
            <g id="Group-13" transform="translate(148.000000, 1007.000000)">
                <g id="walking-person" transform="translate(0.000000, 2.000000)">
                    <g id="pedestrian-walking">
                        <path d="M7.73971677,5.95379887 L5.95110797,5.00913081 L5.14285714,3.34349418 C4.86102931,3.0075466 2.54579426,2.55990671 2.28571429,2.7908387 L0.422680779,4.75729804 C0.35776241,4.84125542 0.314388646,4.93580095 0.292640789,5.0406591 L0,7.4653465 L0,7.52824564 C0,7.67525961 0.0541460663,7.80117599 0.1626008,7.90619159 C0.271055533,8.01104975 0.401095523,8.06363627 0.55292402,8.06363627 C0.704549266,8.06363627 0.829182779,8.01104975 0.926865209,7.90619159 C1.02434439,7.80117599 1.08405953,7.68569032 1.10564479,7.55977394 L1.33336721,5.48146484 L2.1138104,4.72576975 L1.39828558,10.5196945 L0.13003999,13.2593106 C0.0867068765,13.385227 0.0651216203,13.5005552 0.0651216203,13.6056889 C0.0651216203,13.8363454 0.14642202,14.0308289 0.30902282,14.1882736 C0.47162362,14.3457183 0.672151056,14.4138524 0.910483178,14.3929123 C1.23568478,14.3929123 1.47422015,14.2456228 1.626008,13.9521066 L2.99193602,10.992186 C2.99193602,10.9709703 3.00270832,10.9343644 3.02429358,10.8819354 C3.04608208,10.8293488 3.06782994,10.7821548 3.0894152,10.7401958 C3.11116305,10.6981974 3.12197601,10.656081 3.12197601,10.61424 L3.28457681,9.19723795 L4.68286238,13.8577185 C4.83469088,14.2354676 5.10574641,14.4140099 5.49586638,14.3929123 C5.71277585,14.3929123 5.90236838,14.31419 6.06496918,14.1567453 C6.22756998,13.9993006 6.30887038,13.8048171 6.30887038,13.5742 C6.30887038,13.5529843 6.30346391,13.5269666 6.2926916,13.4954776 C6.28187865,13.4641068 6.27630957,13.4376561 6.27630957,13.4167553 L4.32509997,6.96152353 L4.55282239,4.85168613 L5.10574641,5.70196611 C5.14907953,5.76498334 5.20322559,5.81741242 5.26834721,5.85941079 L7.186996,6.89846693 C7.31703599,6.9404653 7.40374287,6.96152353 7.44707598,6.96152353 C7.59890448,6.96152353 7.72894447,6.90385941 7.8373992,6.78837374 C7.94569133,6.67276999 8,6.54161857 8,6.39476205 C8,6.20578908 7.91329312,6.05881447 7.73971677,5.95379887 Z" id="Fill-4"></path>
                        <path d="M4.03893254,2.72649606 C4.40720466,2.71457121 4.71608812,2.57115915 4.96567201,2.29621506 C5.2152559,2.02113648 5.33394413,1.69835848 5.32209313,1.32783623 C5.31024213,0.957089836 5.17364373,0.640319094 4.91225339,0.377434346 C4.65086305,0.114415107 4.33600954,-0.0111096704 3.96778197,0.000770353176 C3.59933164,0.0128745281 3.29040363,0.156286586 3.0410425,0.431230679 C2.79145861,0.706174772 2.66666667,1.02890794 2.66666667,1.39960951 C2.66666667,1.77017658 2.80330961,2.08694732 3.07672917,2.34996656 C3.34992596,2.61303063 3.67070497,2.73842092 4.03893254,2.72649606 Z" id="Fill-1"></path>
                    </g>
                </g>
            </g>
        </g>
    </g>
</svg>